<svg xmlns="http://www.w3.org/2000/svg"><symbol id="message" viewBox="0 0 26.15 23.53"><path fill="none" stroke="#231f20" stroke-miterlimit="10" d="M4.841 4.684V1.225h20.03v15h-3.562"/><path fill="none" stroke="#231f20" stroke-miterlimit="10" d="M1.279 4.684v15h8.285l1.729 2.5 1.549-2.5h8.466v-15zm2.658 4.362H18.65M3.937 12.4H18.65M3.937 15.732H18.65"/></symbol><symbol id="social-media" viewBox="0 0 13.51 20.93"><path fill="none" stroke="#231f20" stroke-miterlimit="10" d="M3.157 3.883h7.58v11.378h-7.58z"/><circle cx="6.95" cy="17.59" r=".88" fill="none" stroke="#231f20" stroke-miterlimit="10" transform="rotate(-30.895 6.948 17.586)"/><path fill="#231f20" d="M6.089 2.251h1.717a.257.257 0 0 1 .257.257.257.257 0 0 1-.257.257H6.089a.257.257 0 0 1-.257-.257.257.257 0 0 1 .257-.257z"/><path fill="none" stroke="#231f20" stroke-miterlimit="10" d="M11.155 1.044h-.6a.348.348 0 0 0-.313-.238h-.855a.348.348 0 0 0-.313.238H2.721a1.264 1.264 0 0 0-1.264 1.263v1.3a.534.534 0 0 0-.533.533v.627a.534.534 0 0 0 .533.533v.443a.534.534 0 0 0-.533.533V6.9a.534.534 0 0 0 .533.533v11.249a1.264 1.264 0 0 0 1.264 1.264h8.426a1.264 1.264 0 0 0 1.272-1.255V2.307a1.264 1.264 0 0 0-1.264-1.263z"/></symbol></svg>