<svg id="Layer_1" data-name="Layer 1" xmlns="http://www.w3.org/2000/svg" xmlns:xlink="http://www.w3.org/1999/xlink" width="46.161in" height="46.161in" viewBox="0 0 3323.615 3323.615"><defs><pattern id="New_Pattern" data-name="New Pattern" width="178.067" height="178.067" patternTransform="translate(-67.314 -67.314) scale(1.17)" patternUnits="userSpaceOnUse" viewBox="0 0 178.067 178.067"><rect width="178.067" height="178.067" fill="none"/><polygon points="178.067 142.067 169.55 133.55 178.067 125.034 186.584 133.55 178.067 142.067" fill="#cbebf6"/><polygon points="89.034 186.584 80.517 178.067 89.034 169.55 97.55 178.067 89.034 186.584" fill="#cbebf6"/><polygon points="0 142.067 -8.517 133.55 0 125.034 8.517 133.55 0 142.067" fill="#cbebf6"/><polygon points="178.067 53.034 169.55 44.517 178.067 36 186.584 44.517 178.067 53.034" fill="#cbebf6"/><polygon points="89.034 97.55 80.517 89.034 89.034 80.517 97.55 89.034 89.034 97.55" fill="#cbebf6"/><polygon points="0 53.034 -8.517 44.517 0 36 8.517 44.517 0 53.034" fill="#cbebf6"/><polygon points="89.034 8.517 80.517 0 89.034 -8.517 97.55 0 89.034 8.517" fill="#cbebf6"/></pattern></defs><title>pattern</title><rect width="3323.615" height="3323.615" fill="url(#New_Pattern)"/></svg>